:SAMPLES-PER-SECOND 30
:FULLY-SPECIFIED
:DEGREES
50
root  61.0104 37.5157 -5.55573 -76.1483 -85.8488 76.5892
RightUpLeg  -33.3261 -9.65922 -6.10064
RightLeg  72.3816 -1.68487 -6.88609
RightFoot  1.93917 -0.27201 2.45498
RightToes  0.00048216 0.542163 -0.142577
Spine  24.7072 -0.659859 -3.78946
Spine1  3.67734 -1.00977 -2.2361
HEad  -21.5673 -0.767622 4.46132
LeftShoulder1  9.3955 -13.6612 -47.7787
LeftArm  -3.68703 -9.42527 -27.7844
LeftForeArm  28.8999 -16.9675 -4.82512
LeftHand  -0.25398 0.0180481 5.50724
RightShoulder  6.94777 10.8978 41.9799
RightArm  30.718 -33.0681 31.1127
RightForeArm  -15.1919 24.8477 5.99362
RightHand  -2.37657 6.10688 -24.0427
LeftUpLeg  -11.6836 13.3392 -7.41821
LeftLeg  35.6511 8.62288 6.96655
LeftFoot  -25.4475 -0.0279162 -1.43662
LeftToes  1.06246e-005 4.65856e-005 -8.18504e-006
51
root  59.5852 37.2845 -5.45111 -72.0838 -85.612 72.6973
RightUpLeg  -39.0739 -10.268 -4.18651
RightLeg  67.3954 -2.81076 -8.10284
RightFoot  -1.76616 -0.264241 2.92627
RightToes  0.00048216 0.542163 -0.142577
Spine  26.7085 -1.32439 -5.39756
Spine1  3.00628 -2.75627 0.161919
HEad  -23.7998 1.38643 3.82683
LeftShoulder1  9.74148 -14.0845 -48.355
LeftArm  0.735126 -13.004 -29.3225
LeftForeArm  27.6234 -21.6134 -3.84436
LeftHand  -0.25398 0.0180481 5.50724
RightShoulder  6.8332 10.9773 40.9877
RightArm  31.3587 -41.6409 28.9086
RightForeArm  -14.372 27.903 6.75053
RightHand  -2.74054 7.10725 -25.449
LeftUpLeg  -9.64302 11.2421 -7.58684
LeftLeg  36.4818 10.0123 8.23046
LeftFoot  -28.1545 -0.279207 -3.0354
LeftToes  1.06246e-005 4.65856e-005 -8.18504e-006
52
root  57.9618 37.0801 -5.30121 -73.0376 -85.5235 73.9007
RightUpLeg  -42.8639 -10.3411 -1.98369
RightLeg  58.7687 -3.80462 -7.29049
RightFoot  -3.72203 -0.128423 1.5805
RightToes  0.00048216 0.542163 -0.142577
Spine  27.6899 -1.89008 -6.94851
Spine1  2.64046 -4.56068 3.60237
HEad  -25.4484 4.33664 2.59202
LeftShoulder1  9.79842 -14.2437 -48.1986
LeftArm  2.44675 -15.687 -31.3002
LeftForeArm  30.5171 -26.6429 -4.02467
LeftHand  -0.25398 0.0180481 5.50724
RightShoulder  6.54023 10.7935 39.6253
RightArm  30.8761 -49.4984 25.5122
RightForeArm  -12.5759 31.3859 7.55343
RightHand  -3.30779 9.01184 -26.6388
LeftUpLeg  -6.51599 10.0274 -7.73283
LeftLeg  35.7728 10.9425 8.72325
LeftFoot  -29.652 -0.519787 -4.34386
LeftToes  1.06246e-005 4.65856e-005 -8.18504e-006
53
root  56.0886 36.8964 -5.08173 -78.4652 -85.7715 79.8031
RightUpLeg  -44.7356 -9.95752 0.0742253
RightLeg  47.8285 -3.79266 -4.84082
RightFoot  -4.84293 -0.180445 2.59974
RightToes  0.00048216 0.542163 -0.142577
Spine  27.6374 -2.58801 -7.81647
Spine1  1.94048 -6.27094 7.26012
HEad  -25.6832 7.5843 0.783519
LeftShoulder1  9.62541 -14.3253 -47.1141
LeftArm  3.01272 -16.6606 -33.9346
LeftForeArm  35.2804 -31.2724 -4.8781
LeftHand  -0.25398 0.0180481 5.50724
RightShoulder  6.17617 10.5804 37.8125
RightArm  28.8309 -56.7471 21.3354
RightForeArm  -9.41232 35.6969 8.60299
RightHand  -3.7228 10.4639 -27.2118
LeftUpLeg  -2.51548 10.0727 -7.58406
LeftLeg  33.5569 11.6765 8.57894
LeftFoot  -31.0545 -0.557445 -4.29451
LeftToes  1.06246e-005 4.65856e-005 -8.18504e-006
54
root  53.8243 36.6207 -4.79433 -83.1385 -86.6416 84.5761
RightUpLeg  -44.3776 -9.85108 2.11067
RightLeg  38.5678 -3.14581 -2.92786
RightFoot  -5.14561 -0.343328 5.69717
RightToes  0.00048216 0.542163 -0.142577
Spine  26.8713 -3.92951 -7.29416
Spine1  0.563546 -7.91605 10.2689
HEad  -24.2268 10.8809 -2.14945
LeftShoulder1  9.30902 -14.3738 -45.3895
LeftArm  3.20349 -15.244 -37.0537
LeftForeArm  36.8973 -35.0022 -5.69744
LeftHand  -0.25398 0.0180481 5.50724
RightShoulder  5.72888 10.435 35.1339
RightArm  25.2846 -62.6284 17.9422
RightForeArm  -6.55725 40.7061 10.044
RightHand  -3.89441 10.7989 -27.8422
LeftUpLeg  2.70461 11.01 -6.2316
LeftLeg  30.9228 11.5071 7.72
LeftFoot  -33.6748 -0.769675 -4.8818
LeftToes  1.06246e-005 4.65856e-005 -8.18504e-006
55
root  51.2656 36.3111 -4.46195 -57.6127 -88.1129 58.5549
RightUpLeg  -42.4805 -10.8095 4.67658
RightLeg  35.5384 -2.97291 -2.53072
RightFoot  -5.82453 -0.398287 7.46138
RightToes  0.00048216 0.542163 -0.142577
Spine  25.7129 -6.12178 -4.9094
Spine1  -0.633074 -10.0563 13.7073
HEad  -21.9743 14.6071 -6.65077
LeftShoulder1  8.96878 -14.1425 -44.2622
LeftArm  2.64305 -11.8029 -40.1183
LeftForeArm  35.0991 -37.9504 -6.57619
LeftHand  -0.25398 0.0180481 5.50724
RightShoulder  5.34726 10.377 32.5844
RightArm  20.1844 -65.2293 16.0572
RightForeArm  -5.26163 45.3388 11.6923
RightHand  -4.13413 11.0739 -28.9889
LeftUpLeg  9.12756 11.4625 -3.03216
LeftLeg  28.1473 9.80413 5.98761
LeftFoot  -34.5239 -1.38195 -7.82826
LeftToes  1.06246e-005 4.65856e-005 -8.18504e-006
